<?xml version="1.0" encoding="UTF-8"?>
<svg id="Layer_2" data-name="Layer 2" xmlns="http://www.w3.org/2000/svg" viewBox="0 0 282.14 269.81">
  <defs>
    <style>
      .cls-1 {
        fill: #fff;
      }
    </style>
  </defs>
  <g id="Layer_1-2" data-name="Layer 1">
    <path class="cls-1" d="M0,269.8V1.12C0,.57,1.2-.14,1.79.02h146.32c.65-.04,1.25.23,1.9.26,41.82,1.91,76.91,19.16,103.25,51.48,17.25,21.17,26.64,47.32,28.54,74.64,5.54,79.33-57.7,142.87-135.85,143.41H0ZM226.4,108.76c-.56-2.62-1.73-5.37-2.84-7.84-14.78-32.95-45.43-52.8-81.46-54.33-17.58-.75-35.42-.07-53,.02-12.27.06-24.55-.07-36.82,0v62.16h174.12ZM48.69,130.6c1.5-2.26,6.15-5.07,6.48-7.79.54-4.39-4.33-6.55-7.44-3.61l-15.58,15.6,16.3,16.33c3.31,2.32,7.26-.36,6.7-4.31-.32-2.29-4.63-5.18-6.1-7.1-.19-.24-.46-.3-.36-.72h69.55c-.78-2.71-.64-5.68,0-8.4H48.69ZM228.08,139c-2.12,3.11-9.07,6.56-6.1,11.02,1.36,2.05,4.12,2.65,6.11,1.1l16.3-16.33-15.58-15.6c-3.2-2.92-7.92-.88-7.44,3.6.29,2.72,4.97,5.52,6.47,7.8h-70.03c.62,2.75.76,5.66,0,8.4h70.27ZM135.45,120.1c-4.24.53-9.02,4.28-10.86,8.09-6.77,14.01,9.49,27.85,22.07,18.97,12.75-9,5.06-29.1-11.21-27.06ZM226.64,161.08H52.28v61.92h92.47c19.35-.18,38.01-7.74,52.99-19.69,13.56-10.82,23.73-25.61,28.91-42.23Z"/>
  </g>
</svg>